<?xml version="1.0" encoding="iso-8859-1"?>
<!-- Generator: Adobe Illustrator 19.0.0, SVG Export Plug-In . SVG Version: 6.00 Build 0)  -->
<svg version="1.1" id="Layer_1" xmlns="http://www.w3.org/2000/svg" xmlns:xlink="http://www.w3.org/1999/xlink" x="0px" y="0px"
	 viewBox="0 0 512 512" style="enable-background:new 0 0 512 512;" xml:space="preserve">
<g>
	<g>
		<path d="M507.768,5.655c-3.539-3.538-8.847-5.307-14.154-5.307L116.769,51.655c-7.077,0-12.384,5.308-14.154,12.384
			c-1.769,7.077,0,14.154,3.538,17.692l49.538,49.538L5.308,281.654c-7.077,7.077-7.077,17.692,0,24.769L205.23,506.345
			c3.538,3.538,7.077,5.307,12.384,5.307s8.847-1.769,12.384-5.307L380.383,355.96l51.307,51.307
			c5.307,5.307,12.385,7.077,17.692,3.539c7.077-1.77,10.615-7.077,12.385-14.154l49.538-376.844
			C513.075,16.27,511.306,10.962,507.768,5.655z M431.691,357.73l-37.154-38.923c-3.539-3.538-7.077-5.307-12.385-5.307
			c-5.308,0-8.847,1.77-12.385,5.307L219.384,469.192L44.231,294.038l150.384-150.384c7.077-7.077,7.077-17.692,0-24.769
			l-37.154-37.154l318.46-42.461L431.691,357.73z"/>
	</g>
</g>
<g>
</g>
<g>
</g>
<g>
</g>
<g>
</g>
<g>
</g>
<g>
</g>
<g>
</g>
<g>
</g>
<g>
</g>
<g>
</g>
<g>
</g>
<g>
</g>
<g>
</g>
<g>
</g>
<g>
</g>
</svg>
