<?xml version="1.0" encoding="iso-8859-1"?>
<!-- Generator: Adobe Illustrator 19.0.0, SVG Export Plug-In . SVG Version: 6.00 Build 0)  -->
<svg version="1.1" id="Capa_1" xmlns="http://www.w3.org/2000/svg" xmlns:xlink="http://www.w3.org/1999/xlink" x="0px" y="0px"
	 viewBox="0 0 512 512" style="enable-background:new 0 0 512 512;" xml:space="preserve">
<g>
	<g>
		<path d="M256,0C116.52,0,0,116.134,0,256c0,67.468,26.88,131.504,75.688,180.312C124.496,485.12,188.532,512,256,512
			c140.037,0,256-116.67,256-256C512,116.518,395.865,0,256,0z M415.1,415.099C371.957,458.241,315.455,482,256,482
			c-59.455,0-115.957-23.759-159.099-66.901C53.76,371.957,30,315.455,30,256C30,132.869,132.966,30,256,30
			c59.455,0,115.957,23.759,159.1,66.901C504.313,186.115,504.313,325.885,415.1,415.099z"/>
	</g>
</g>
<g>
	<g>
		<path d="M428.442,302.976l-105-60c-4.643-2.653-10.345-2.634-14.972,0.05C303.847,245.71,301,250.653,301,256v15h-30v-60h45
			c12.351,0,19.395-14.141,12-24L238,67c-6.001-8.001-18.011-7.985-24,0l-90,120c-7.41,9.88-0.323,24,12,24h45v195
			c0,8.284,6.716,15,15,15h60c8.284,0,15-6.716,15-15v-45h30v15c0,11.478,12.437,18.739,22.442,13.024l105-60
			C438.5,323.275,438.509,308.73,428.442,302.976z M331,350.152V346c0-8.284-6.716-15-15-15h-60c-8.284,0-15,6.716-15,15v45h-30V196
			c0-8.284-6.716-15-15-15h-30l60-80l60,80h-30c-8.284,0-15,6.716-15,15v90c0,8.284,6.716,15,15,15h60c8.284,0,15-6.716,15-15
			v-4.152L390.767,316L331,350.152z"/>
	</g>
</g>
<g>
</g>
<g>
</g>
<g>
</g>
<g>
</g>
<g>
</g>
<g>
</g>
<g>
</g>
<g>
</g>
<g>
</g>
<g>
</g>
<g>
</g>
<g>
</g>
<g>
</g>
<g>
</g>
<g>
</g>
</svg>
