<?xml version="1.0" encoding="iso-8859-1"?>
<!-- Generator: Adobe Illustrator 19.0.0, SVG Export Plug-In . SVG Version: 6.00 Build 0)  -->
<svg version="1.1" id="Capa_1" xmlns="http://www.w3.org/2000/svg" xmlns:xlink="http://www.w3.org/1999/xlink" x="0px" y="0px"
	 viewBox="0 0 511.999 511.999" style="enable-background:new 0 0 511.999 511.999;" xml:space="preserve">
<path style="fill:#585A60;" d="M232.847,502.402L9.599,279.154c-12.767-12.768-12.767-33.541,0-46.309L232.847,9.598
	c12.795-12.795,33.51-12.8,46.306,0l223.25,223.249c12.765,12.769,12.764,33.542,0,46.309L279.151,502.402
	C266.358,515.198,245.645,515.2,232.847,502.402z"/>
<path style="fill:#414356;" d="M28.379,269.762c-7.589-7.589-7.589-19.936,0-27.524C170.285,100.332,150.143,120.718,268.42,2.439
	c-11.591-4.749-25.766-2.65-35.575,7.159L9.599,232.846c-12.767,12.767-12.767,33.541,0,46.309l223.248,223.248
	c9.759,9.76,23.917,11.938,35.582,7.155C208.097,449.226,162.469,403.852,28.379,269.762z"/>
<path style="fill:#F2D422;" d="M477.28,251.629L260.684,35.033c-2.413-2.414-6.328-2.414-8.742,0
	C20.478,266.496,33.534,252.21,33.534,256c0,3.788-13.113-10.553,218.408,220.969c2.413,2.411,6.328,2.413,8.742,0L477.28,260.371
	C479.694,257.957,479.694,254.044,477.28,251.629z"/>
<path style="fill:#E5C213;" d="M61.962,256c0-3.793-12.338,9.778,208.564-211.124l-9.843-9.844c-2.413-2.414-6.328-2.414-8.742,0
	C20.478,266.496,33.534,252.21,33.534,256c0,1.64,0.652,3.212,1.811,4.371c231.463,231.464,217.176,218.408,220.969,218.408
	c3.315,0,3.8-1.238,14.214-11.653C49.65,246.247,61.962,259.789,61.962,256z"/>
<path style="fill:#585A60;" d="M388.017,211.761L341.4,182.255c-3.577-2.265-8.256,0.312-8.256,4.545v15.131
	c-21.493,3.439-43.875,14.759-60.666,33.539c0,0-8.239,9.648-16.478,26.118c-10.507-20.999-20.067-31.563-32.424-40.653
	c-17.811-13.104-35.453-17.521-44.723-19.004V186.8c0-4.232-4.679-6.81-8.255-4.545l-46.617,29.505
	c-3.331,2.107-3.335,6.978,0,9.089l46.617,29.505c3.576,2.26,8.255-0.309,8.255-4.545v-10.2
	c44.813,11.395,60.454,54.786,60.658,101.117v46.842c0,9.103,7.38,16.482,16.483,16.482c9.127,0,16.491-7.392,16.491-16.482v-46.842
	c0.204-46.337,15.847-89.721,60.658-101.117v10.2c0,2.977,2.416,5.378,5.378,5.378c2.211,0-1.104,1.686,49.493-30.339
	c1.558-0.986,2.503-2.701,2.503-4.545C390.519,214.463,389.575,212.747,388.017,211.761z"/>
<path style="fill:#414356;" d="M257.05,381.732v-52.06c-0.257-51.614-19.348-94.883-68.576-110.246
	c-7.853-1.825-7.977,5.181-7.977,5.181v4.018c0,3.311-3.051,5.978-6.788,5.978c-2.71,0,0.05,1.124-46.55-24.85
	c-2.996,1.895-5.678,3.006-5.678,6.554c0,1.844,0.944,3.559,2.503,4.545c50.607,32.031,47.285,30.339,49.493,30.339
	c2.958,0,5.378-2.397,5.378-5.378v-10.2c44.813,11.395,60.454,54.786,60.658,101.117v46.843c0,13.602,15.579,21.316,26.399,13.151
	C260.557,393.406,257.05,387.935,257.05,381.732z"/>
<g>
</g>
<g>
</g>
<g>
</g>
<g>
</g>
<g>
</g>
<g>
</g>
<g>
</g>
<g>
</g>
<g>
</g>
<g>
</g>
<g>
</g>
<g>
</g>
<g>
</g>
<g>
</g>
<g>
</g>
</svg>
